<svg width="131" height="41" viewBox="0 0 131 41" fill="none" xmlns="http://www.w3.org/2000/svg">
<path d="M10.3398 10.5352V20.3262H11.0254C12.0801 20.3262 12.9414 20.168 13.6094 19.8516C14.2773 19.5352 14.8398 19.002 15.2969 18.252C15.7656 17.502 16.0703 16.4883 16.2109 15.2109H16.8262V27.1816H16.2109C15.9883 24.9199 15.3789 23.4316 14.3828 22.7168C13.3984 21.9902 12.2793 21.627 11.0254 21.627H10.3398V28.9219C10.3398 30.1406 10.4043 30.9023 10.5332 31.207C10.6738 31.5117 10.9375 31.7812 11.3242 32.0156C11.7227 32.2383 12.2559 32.3496 12.9238 32.3496H13.7148V33H1.25195V32.3496H2.04297C2.73438 32.3496 3.29102 32.2266 3.71289 31.9805C4.01758 31.8164 4.25195 31.5352 4.41602 31.1367C4.54492 30.8555 4.60938 30.1172 4.60938 28.9219V13.2422C4.60938 12.0234 4.54492 11.2617 4.41602 10.957C4.28711 10.6523 4.02344 10.3887 3.625 10.166C3.23828 9.93164 2.71094 9.81445 2.04297 9.81445H1.25195V9.16406H21.3613V16.002H20.6406C20.4766 14.3965 20.0547 13.207 19.375 12.4336C18.707 11.6602 17.7344 11.1152 16.457 10.7988C15.7539 10.623 14.4531 10.5352 12.5547 10.5352H10.3398ZM39.5371 16.5645V29.4316C39.5371 30.6855 39.6543 31.4707 39.8887 31.7871C40.123 32.0918 40.5977 32.2852 41.3125 32.3672V33H34.6152V30.8027C33.8301 31.7402 33.0449 32.4258 32.2598 32.8594C31.4746 33.2812 30.5957 33.4922 29.623 33.4922C28.6973 33.4922 27.8711 33.2109 27.1445 32.6484C26.4297 32.0742 25.9492 31.4062 25.7031 30.6445C25.457 29.8828 25.334 28.5527 25.334 26.6543V20.1328C25.334 18.8906 25.2168 18.1172 24.9824 17.8125C24.7598 17.5078 24.2852 17.3086 23.5586 17.2148V16.5645H30.2559V27.7969C30.2559 28.9688 30.3086 29.7246 30.4141 30.0645C30.5312 30.4043 30.707 30.6621 30.9414 30.8379C31.1875 31.0137 31.4688 31.1016 31.7852 31.1016C32.207 31.1016 32.5879 30.9902 32.9277 30.7676C33.3965 30.4629 33.959 29.8477 34.6152 28.9219V20.1328C34.6152 18.8906 34.498 18.1172 34.2637 17.8125C34.041 17.5078 33.5664 17.3086 32.8398 17.2148V16.5645H39.5371ZM50.418 16.5645V18.6914C51.2617 17.7773 52.0703 17.1152 52.8438 16.7051C53.6172 16.2832 54.4492 16.0723 55.3398 16.0723C56.4062 16.0723 57.291 16.3711 57.9941 16.9688C58.6973 17.5547 59.166 18.2871 59.4004 19.166C59.5879 19.834 59.6816 21.1172 59.6816 23.0156V29.4141C59.6816 30.6797 59.793 31.4707 60.0156 31.7871C60.25 32.0918 60.7305 32.2852 61.457 32.3672V33H53.1426V32.3672C53.7637 32.2852 54.209 32.0273 54.4785 31.5938C54.666 31.3008 54.7598 30.5742 54.7598 29.4141V22.1016C54.7598 20.7539 54.707 19.9043 54.6016 19.5527C54.4961 19.2012 54.3145 18.9316 54.0566 18.7441C53.8105 18.5449 53.5352 18.4453 53.2305 18.4453C52.2227 18.4453 51.2852 19.166 50.418 20.6074V29.4141C50.418 30.6445 50.5293 31.4238 50.752 31.752C50.9863 32.0801 51.4141 32.2852 52.0352 32.3672V33H43.7207V32.3672C44.4121 32.2969 44.9043 32.0742 45.1973 31.6992C45.3965 31.4414 45.4961 30.6797 45.4961 29.4141V20.1328C45.4961 18.8906 45.3789 18.1172 45.1445 17.8125C44.9219 17.5078 44.4473 17.3086 43.7207 17.2148V16.5645H50.418ZM67.6973 8.60156C68.459 8.60156 69.1035 8.87109 69.6309 9.41016C70.1582 9.9375 70.4219 10.5762 70.4219 11.3262C70.4219 12.0762 70.1523 12.7148 69.6133 13.2422C69.0859 13.7695 68.4473 14.0332 67.6973 14.0332C66.9473 14.0332 66.3086 13.7695 65.7812 13.2422C65.2539 12.7148 64.9902 12.0762 64.9902 11.3262C64.9902 10.5762 65.2539 9.9375 65.7812 9.41016C66.3086 8.87109 66.9473 8.60156 67.6973 8.60156ZM70.1582 16.5645V29.5898C70.1582 30.75 70.293 31.4941 70.5625 31.8223C70.832 32.1387 71.3594 32.3203 72.1445 32.3672V33H63.2676V32.3672C63.9941 32.3438 64.5332 32.1328 64.8848 31.7344C65.1191 31.4648 65.2363 30.75 65.2363 29.5898V19.9922C65.2363 18.832 65.1016 18.0938 64.832 17.7773C64.5625 17.4492 64.041 17.2617 63.2676 17.2148V16.5645H70.1582Z" fill="#171727"/>
<path d="M82.3574 10.5352V20.2383H82.832C84.3438 20.2383 85.4395 19.7637 86.1191 18.8145C86.7988 17.8652 87.2324 16.4648 87.4199 14.6133H88.0879V27.0938H87.4199C87.2793 25.7344 86.9805 24.6211 86.5234 23.7539C86.0781 22.8867 85.5566 22.3066 84.959 22.0137C84.3613 21.709 83.4941 21.5566 82.3574 21.5566V28.2715C82.3574 29.584 82.4102 30.3867 82.5156 30.6797C82.6328 30.9727 82.8438 31.2129 83.1484 31.4004C83.4531 31.5879 83.9453 31.6816 84.625 31.6816H86.0488C88.2754 31.6816 90.0566 31.166 91.3926 30.1348C92.7402 29.1035 93.707 27.5332 94.293 25.4238H94.9434L93.8711 33H73.2695V32.3496H74.0605C74.752 32.3496 75.3086 32.2266 75.7305 31.9805C76.0352 31.8164 76.2695 31.5352 76.4336 31.1367C76.5625 30.8555 76.627 30.1172 76.627 28.9219V13.2422C76.627 12.1641 76.5977 11.502 76.5391 11.2559C76.4219 10.8457 76.2051 10.5293 75.8887 10.3066C75.4434 9.97852 74.834 9.81445 74.0605 9.81445H73.2695V9.16406H93.2207V16.2129H92.5527C92.2129 14.4902 91.7324 13.2539 91.1113 12.5039C90.502 11.7539 89.6348 11.2031 88.5098 10.8516C87.8535 10.6406 86.623 10.5352 84.8184 10.5352H82.3574ZM104.594 16.5645V20.291C105.684 18.5918 106.639 17.4668 107.459 16.916C108.279 16.3535 109.07 16.0723 109.832 16.0723C110.488 16.0723 111.01 16.2773 111.396 16.6875C111.795 17.0859 111.994 17.6543 111.994 18.3926C111.994 19.1777 111.801 19.7871 111.414 20.2207C111.039 20.6543 110.582 20.8711 110.043 20.8711C109.422 20.8711 108.883 20.6719 108.426 20.2734C107.969 19.875 107.699 19.6523 107.617 19.6055C107.5 19.5352 107.365 19.5 107.213 19.5C106.873 19.5 106.551 19.6289 106.246 19.8867C105.766 20.2852 105.402 20.8535 105.156 21.5918C104.781 22.7285 104.594 23.9824 104.594 25.3535V29.1328L104.611 30.1172C104.611 30.7852 104.652 31.2129 104.734 31.4004C104.875 31.7168 105.08 31.9512 105.35 32.1035C105.631 32.2441 106.1 32.332 106.756 32.3672V33H97.8789V32.3672C98.5938 32.3086 99.0742 32.1152 99.3203 31.7871C99.5781 31.4473 99.707 30.5625 99.707 29.1328V20.0449C99.707 19.1074 99.6602 18.5098 99.5664 18.252C99.4492 17.9238 99.2793 17.6836 99.0566 17.5312C98.834 17.3789 98.4414 17.2734 97.8789 17.2148V16.5645H104.594ZM122.84 30.5742C120.836 32.3438 119.037 33.2285 117.443 33.2285C116.506 33.2285 115.727 32.9238 115.105 32.3145C114.484 31.6934 114.174 30.9199 114.174 29.9941C114.174 28.7402 114.713 27.6152 115.791 26.6191C116.869 25.6113 119.219 24.2754 122.84 22.6113V20.959C122.84 19.7168 122.77 18.9375 122.629 18.6211C122.5 18.293 122.248 18.0117 121.873 17.7773C121.498 17.5312 121.076 17.4082 120.607 17.4082C119.846 17.4082 119.219 17.5781 118.727 17.918C118.422 18.1289 118.27 18.375 118.27 18.6562C118.27 18.9023 118.434 19.207 118.762 19.5703C119.207 20.0742 119.43 20.5605 119.43 21.0293C119.43 21.6035 119.213 22.0957 118.779 22.5059C118.357 22.9043 117.801 23.1035 117.109 23.1035C116.371 23.1035 115.75 22.8809 115.246 22.4355C114.754 21.9902 114.508 21.4688 114.508 20.8711C114.508 20.0273 114.842 19.2246 115.51 18.4629C116.178 17.6895 117.109 17.0977 118.305 16.6875C119.5 16.2773 120.742 16.0723 122.031 16.0723C123.59 16.0723 124.82 16.4062 125.723 17.0742C126.637 17.7305 127.229 18.4453 127.498 19.2188C127.662 19.7109 127.744 20.8418 127.744 22.6113V28.9922C127.744 29.7422 127.773 30.2168 127.832 30.416C127.891 30.6035 127.979 30.7441 128.096 30.8379C128.213 30.9316 128.348 30.9785 128.5 30.9785C128.805 30.9785 129.115 30.7617 129.432 30.3281L129.959 30.75C129.373 31.6172 128.764 32.25 128.131 32.6484C127.51 33.0352 126.801 33.2285 126.004 33.2285C125.066 33.2285 124.334 33.0117 123.807 32.5781C123.279 32.1328 122.957 31.4648 122.84 30.5742ZM122.84 29.291V23.7891C121.422 24.6211 120.367 25.5117 119.676 26.4609C119.219 27.0938 118.99 27.7324 118.99 28.377C118.99 28.916 119.184 29.3906 119.57 29.8008C119.863 30.1172 120.273 30.2754 120.801 30.2754C121.387 30.2754 122.066 29.9473 122.84 29.291Z" fill="#D38669"/>
</svg>
